# xmcd
#
# Track frame offsets:
#	150
#	16127
#	34120
#	56811
#	76767
#	97889
#	120647
#	138467
#	157135
#	179837
#
# Disc length: 2671 seconds
#
# Revision: 0
# Processed by: cddbd v1.5.2PL0 Copyright (c) Steve Scherf et al.
# Submitted via: dBpowerAMP V4.0
#
DISCID=800a6d0a
DTITLE=James Brown - Godfather of Soul Collectors Edition
DYEAR=2007
DGENRE=Blues
TTITLE0=I Got You (I Feel Good) (Digital Johnson Mix)
TTITLE1=Super Bad (Fredoo Mix)
TTITLE2=Get Up Offa That Thang (Splats and Star Mix)
TTITLE3=Papa's Got A Brand New Bag (Feel It Mix)
TTITLE4=Get Up (I Feel Like Being A Sex Machine) (Get Funky Mix)
TTITLE5=Get On the Good Food (DJ Rib Mix)
TTITLE6=I Got the Feelin' (Hyper Mix)
TTITLE7=Cold Sweat (Rosetta Mix)
TTITLE8=Hot Pants (Da' Funked Mix)
TTITLE9=It's Too Funky in Here (Funk Me Mix)
EXTD=
EXTT0=
EXTT1=
EXTT2=
EXTT3=
EXTT4=
EXTT5=
EXTT6=
EXTT7=
EXTT8=
EXTT9=
PLAYORDER=
